<svg width="116" height="394" viewBox="0 0 116 394" fill="none" xmlns="http://www.w3.org/2000/svg">
<path d="M1.6045 109.111L1.68744 73.5914L58.7115 46.2045L1.77524 35.9915L1.85818 0.471586L115.091 20.736L115.008 56.2559L57.0245 83.4806L114.92 93.8558L114.837 129.376L1.6045 109.111ZM114.717 180.943L1.48408 160.679L1.56702 125.159L114.8 145.423L114.717 180.943ZM60.3012 256.219L1.18808 287.441L1.28672 245.201L50.6234 220.996L1.36368 212.241L1.44662 176.721L114.68 196.986L114.597 232.505L66.9366 223.914L114.521 264.985L114.427 305.145L60.3012 256.219ZM86.1663 348.261L72.0919 345.828L72.0098 381.028L45.301 376.165L45.3832 340.965L29.39 338.048L29.2966 378.048L0.988247 373.022L1.16459 297.502L114.398 317.766L114.221 393.286L86.0729 388.261L86.1663 348.261Z" fill="black" fill-opacity="0.1"/>
</svg>
